{
  "accessors": [
    {
      "bufferView": 2,
      "componentType": 5126,
      "count": 2080,
      "max": [
        -0.754654586315155,
        1.0273809432983398,
        0.34954002499580383
      ],
      "min": [
        -0.9109727740287781,
        0.8678855299949646,
        0.18380528688430786
      ],
      "type": "VEC3"
    },
    {
      "bufferView": 2,
      "byteOffset": 24960,
      "componentType": 5126,
      "count": 2080,
      "max": [
        0.9983116984367371,
        0.9982430934906006,
        0.9998681545257568
      ],
      "min": [
        -0.9983115792274475,
        -0.9982432126998901,
        -0.9996393322944641
      ],
      "type": "VEC3"
    },
    {
      "bufferView": 1,
      "componentType": 5126,
      "count": 2080,
      "max": [
        0.9750000238418579,
        1.0
      ],
      "min": [
        0.02500000037252903,
        0.0
      ],
      "type": "VEC2"
    },
    {
      "bufferView": 0,
      "componentType": 5125,
      "count": 12000,
      "type": "SCALAR"
    },
    {
      "bufferView": 2,
      "byteOffset": 49920,
      "componentType": 5126,
      "count": 2682,
      "max": [
        -0.7554903030395508,
        1.026526689529419,
        0.3331254720687866
      ],
      "min": [
        -0.9101381301879883,
        0.8687356114387512,
        0.18463674187660217
      ],
      "type": "VEC3"
    },
    {
      "bufferView": 2,
      "byteOffset": 82104,
      "componentType": 5126,
      "count": 2682,
      "max": [
        0.9983117580413818,
        0.9982436299324036,
        0.9999307990074158
      ],
      "min": [
        -0.9983117580413818,
        -0.9982433915138245,
        -0.9996395707130432
      ],
      "type": "VEC3"
    },
    {
      "bufferView": 3,
      "componentType": 5126,
      "count": 2682,
      "max": [
        0.9658899307250977,
        0.9977845549583435,
        0.9999673962593079,
        1.0
      ],
      "min": [
        -0.9995217323303223,
        -0.9994819164276123,
        -0.9999875426292419,
        -1.0
      ],
      "type": "VEC4"
    },
    {
      "bufferView": 1,
      "byteOffset": 16640,
      "componentType": 5126,
      "count": 2682,
      "max": [
        0.9663040637969971,
        1.9772672653198242
      ],
      "min": [
        0.03754362463951111,
        1.0224649906158447
      ],
      "type": "VEC2"
    },
    {
      "bufferView": 0,
      "byteOffset": 48000,
      "componentType": 5125,
      "count": 15840,
      "type": "SCALAR"
    }
  ],
  "asset": {
    "extras": {
      "author": "Alexander Antipov (https://sketchfab.com/Dessen)",
      "license": "CC-BY-4.0 (http://creativecommons.org/licenses/by/4.0/)",
      "source": "https://sketchfab.com/3d-models/realistic-human-eye-417cbd1aac554ea189966250b784ab6f",
      "title": "Realistic Human Eye"
    },
    "generator": "Sketchfab-12.68.0",
    "version": "2.0"
  },
  "bufferViews": [
    {
      "buffer": 0,
      "byteLength": 111360,
      "name": "floatBufferViews",
      "target": 34963
    },
    {
      "buffer": 0,
      "byteLength": 38096,
      "byteOffset": 111360,
      "byteStride": 8,
      "name": "floatBufferViews",
      "target": 34962
    },
    {
      "buffer": 0,
      "byteLength": 114288,
      "byteOffset": 149456,
      "byteStride": 12,
      "name": "floatBufferViews",
      "target": 34962
    },
    {
      "buffer": 0,
      "byteLength": 42912,
      "byteOffset": 263744,
      "byteStride": 16,
      "name": "floatBufferViews",
      "target": 34962
    }
  ],
  "buffers": [
    {
      "byteLength": 306656,
      "uri": "scene.bin"
    }
  ],
  "extensionsRequired": [
    "KHR_materials_pbrSpecularGlossiness"
  ],
  "extensionsUsed": [
    "KHR_materials_pbrSpecularGlossiness"
  ],
  "images": [
    {
      "uri": "textures/Eyes_diffuse.jpeg"
    },
    {
      "uri": "textures/Eyes_specularGlossiness.png"
    },
    {
      "uri": "textures/Eyes_normal.png"
    }
  ],
  "materials": [
    {
      "alphaMode": "BLEND",
      "doubleSided": true,
      "extensions": {
        "KHR_materials_pbrSpecularGlossiness": {
          "diffuseFactor": [
            0.0,
            0.0,
            0.0,
            0.4434070122
          ],
          "glossinessFactor": 1.0,
          "specularFactor": [
            0.0383003049,
            0.0383003049,
            0.0383003049
          ]
        }
      },
      "name": "aiStandard3"
    },
    {
      "doubleSided": true,
      "extensions": {
        "KHR_materials_pbrSpecularGlossiness": {
          "diffuseFactor": [
            1.0,
            1.0,
            1.0,
            1.0
          ],
          "diffuseTexture": {
            "index": 0
          },
          "glossinessFactor": 1.0,
          "specularFactor": [
            0.1907393293,
            0.1907393293,
            0.1907393293
          ],
          "specularGlossinessTexture": {
            "index": 1
          }
        }
      },
      "name": "Eyes",
      "normalTexture": {
        "index": 2
      }
    }
  ],
  "meshes": [
    {
      "name": "Eye_1_R_aiStandard3_0",
      "primitives": [
        {
          "attributes": {
            "NORMAL": 1,
            "POSITION": 0,
            "TEXCOORD_0": 2
          },
          "indices": 3,
          "material": 0,
          "mode": 4
        }
      ]
    },
    {
      "name": "Eye_2_R_Eyes_0",
      "primitives": [
        {
          "attributes": {
            "NORMAL": 5,
            "POSITION": 4,
            "TANGENT": 6,
            "TEXCOORD_0": 7
          },
          "indices": 8,
          "material": 1,
          "mode": 4
        }
      ]
    }
  ],
  "nodes": [
    {
      "children": [
        1
      ],
      "matrix": [
        1.0,
        0.0,
        0.0,
        0.0,
        0.0,
        2.220446049250313e-16,
        -1.0,
        0.0,
        0.0,
        1.0,
        2.220446049250313e-16,
        0.0,
        0.0,
        0.0,
        0.0,
        1.0
      ],
      "name": "Sketchfab_model"
    },
    {
      "children": [
        2
      ],
      "matrix": [
        1.0,
        0.0,
        0.0,
        0.0,
        0.0,
        0.0,
        1.0,
        0.0,
        0.0,
        -1.0,
        0.0,
        0.0,
        0.0,
        0.0,
        0.0,
        1.0
      ],
      "name": "e83835d76aa64622886094c972479604.fbx"
    },
    {
      "children": [
        3
      ],
      "name": "RootNode"
    },
    {
      "children": [
        4,
        6
      ],
      "matrix": [
        1.0,
        0.0,
        0.0,
        0.0,
        0.0,
        0.99567178376194,
        0.09293922218480566,
        0.0,
        0.0,
        -0.09293922218480566,
        0.99567178376194,
        0.0,
        0.0,
        0.028830748051404953,
        -0.08692064881324768,
        1.0
      ],
      "name": "Eye_R"
    },
    {
      "children": [
        5
      ],
      "name": "Eye_1_R"
    },
    {
      "mesh": 0,
      "name": "Eye_1_R_aiStandard3_0"
    },
    {
      "children": [
        7
      ],
      "name": "Eye_2_R"
    },
    {
      "mesh": 1,
      "name": "Eye_2_R_Eyes_0"
    }
  ],
  "samplers": [
    {
      "magFilter": 9729,
      "minFilter": 9987,
      "wrapS": 10497,
      "wrapT": 10497
    }
  ],
  "scene": 0,
  "scenes": [
    {
      "name": "Sketchfab_Scene",
      "nodes": [
        0
      ]
    }
  ],
  "textures": [
    {
      "sampler": 0,
      "source": 0
    },
    {
      "sampler": 0,
      "source": 1
    },
    {
      "sampler": 0,
      "source": 2
    }
  ]
}
